<svg version="1.1" id="Layer_1" xmlns="http://www.w3.org/2000/svg" xmlns:xlink="http://www.w3.org/1999/xlink" x="0px" y="0px"
	 width="100%" viewBox="0 0 893 889" enable-background="new 0 0 893 889" xml:space="preserve">
<path fill="#000000" opacity="1.000000" stroke="none" 
	d="
M891.000000,1.000000 
	C891.999695,1.000000 892.999451,1.000000 893.999390,1.000000 
	C893.999573,297.246063 893.999573,593.492126 893.999573,890.000000 
	C718.972046,890.000000 543.943970,890.000000 368.157043,889.632996 
	C371.002808,888.511902 374.611633,887.777405 378.211304,887.000366 
	C394.999023,883.376404 411.977875,880.451599 428.525177,875.943542 
	C453.648254,869.099182 477.167328,858.241333 499.690582,845.114441 
	C519.074707,833.817139 537.188538,820.763245 553.624084,805.624756 
	C569.173096,791.302734 584.207458,776.313171 596.478516,758.935303 
	C603.195557,749.422913 609.394958,739.544983 616.027344,729.544250 
	C635.118958,719.061279 651.968262,705.934204 667.686951,691.544922 
	C683.262451,677.286804 698.219971,662.254089 710.502869,644.914612 
	C716.947998,635.816284 722.905457,626.372559 729.408447,616.941833 
	C748.485413,606.185364 765.678711,593.314270 781.464966,578.798401 
	C802.916748,559.073120 822.206238,537.402527 837.996704,512.670288 
	C852.932007,489.277283 865.376343,464.704956 873.794434,438.340363 
	C878.932800,422.247833 882.728027,405.632690 885.821411,389.009430 
	C888.502014,374.604858 890.729431,359.863007 890.779846,345.262024 
	C891.175842,230.509140 890.999756,115.754265 891.000000,1.000000 
z"/>
<path fill="#000000" opacity="1.000000" stroke="none" 
	d="
M0.999998,543.000000 
	C1.000000,362.403320 1.000000,181.806610 1.000000,1.000000 
	C183.692444,1.000000 366.384979,1.000000 549.870361,1.361605 
	C549.649597,2.148116 548.662415,2.857877 547.618530,2.954260 
	C536.037842,4.023550 524.312561,4.212063 512.893494,6.184618 
	C496.370697,9.038803 479.834045,12.343254 463.720215,16.922712 
	C431.029358,26.213299 400.617462,40.865597 373.081299,60.740948 
	C357.216705,72.191818 341.963470,84.729713 327.780060,98.195045 
	C316.056396,109.325180 305.900787,122.213043 295.824860,134.935425 
	C289.141357,143.374374 283.823792,152.895126 277.538208,161.964569 
	C271.304901,165.698807 265.036652,168.906250 259.625702,173.195267 
	C244.243530,185.388031 228.942062,197.713974 214.161346,210.620270 
	C207.383453,216.538635 201.409149,223.564651 195.930771,230.744797 
	C184.609665,245.582565 173.865265,260.860352 162.637878,276.035950 
	C162.239655,276.411591 162.087234,276.708466 161.965607,277.005493 
	C161.996384,277.005676 161.987366,276.944733 161.625870,276.975891 
	C157.131714,279.552338 152.832291,281.864532 148.894226,284.681854 
	C127.785446,299.783234 107.071602,315.407227 90.209869,335.381348 
	C79.554192,348.003906 68.586296,360.482330 59.175816,374.011322 
	C40.645008,400.652130 26.697077,429.747772 17.116024,460.790588 
	C9.162820,486.559174 3.909449,512.870056 2.919551,539.926331 
	C2.881261,540.972900 1.666538,541.976440 0.999998,543.000000 
z"/>
<path fill="#97E2FF" opacity="1.000000" stroke="none" 
	d="
M277.894745,161.931595 
	C283.823792,152.895126 289.141357,143.374374 295.824860,134.935425 
	C305.900787,122.213043 316.056396,109.325180 327.780060,98.195045 
	C341.963470,84.729713 357.216705,72.191818 373.081299,60.740948 
	C400.617462,40.865597 431.029358,26.213299 463.720215,16.922712 
	C479.834045,12.343254 496.370697,9.038803 512.893494,6.184618 
	C524.312561,4.212063 536.037842,4.023550 547.618530,2.954260 
	C548.662415,2.857877 549.649597,2.148116 550.331543,1.361605 
	C663.354248,1.000000 776.708435,1.000000 890.531372,1.000000 
	C890.999756,115.754265 891.175842,230.509140 890.779846,345.262024 
	C890.729431,359.863007 888.502014,374.604858 885.821411,389.009430 
	C882.728027,405.632690 878.932800,422.247833 873.794434,438.340363 
	C865.376343,464.704956 852.932007,489.277283 837.996704,512.670288 
	C822.206238,537.402527 802.916748,559.073120 781.464966,578.798401 
	C765.678711,593.314270 748.485413,606.185364 729.079468,617.050049 
	C708.497742,628.898010 687.617249,638.419678 665.671021,646.167175 
	C665.224915,646.493713 665.056702,646.747070 664.984375,647.022766 
	C664.992798,646.987122 665.064575,647.001892 664.656006,646.957703 
	C662.472351,647.318481 660.660400,647.605103 658.927795,648.146179 
	C631.021362,656.860840 602.414062,662.613464 573.253662,662.743530 
	C460.812683,663.245117 348.368164,662.931824 235.925034,663.023743 
	C232.028336,663.026917 230.779312,661.952637 230.783997,657.962097 
	C230.917313,544.389709 230.645325,430.815674 231.278137,317.246521 
	C231.378067,299.310059 234.820801,281.279114 237.956055,263.510284 
	C240.254929,250.481689 244.579819,237.810593 248.133148,224.648941 
	C256.554382,202.768677 266.122284,181.826614 277.894745,161.931595 
M515.584778,39.021942 
	C507.916504,40.478073 500.148254,41.539074 492.595245,43.450615 
	C403.392670,66.026253 337.283539,118.137405 294.900848,199.728104 
	C272.144226,243.536789 262.828491,290.743134 263.155884,339.942810 
	C263.296600,361.091492 263.805817,382.238770 263.830658,403.387024 
	C263.916840,476.715515 263.863159,550.044189 263.865265,623.372742 
	C263.865448,629.935730 263.874054,629.944214 270.347321,629.945374 
	C368.507629,629.962952 466.668640,630.165588 564.827515,629.802673 
	C580.538696,629.744568 596.455505,628.335876 611.910034,625.529297 
	C684.889282,612.276245 745.249023,576.851929 791.933533,519.215210 
	C835.709778,465.169128 857.493286,402.743958 857.817810,333.291199 
	C858.270935,236.299805 857.849426,139.304413 857.960510,42.310921 
	C857.966125,37.399006 856.914368,35.817955 851.668457,35.827579 
	C750.842102,36.012558 650.015137,35.894470 549.189026,36.132465 
	C538.277893,36.158222 527.371033,37.992260 515.584778,39.021942 
z"/>
<path fill="#03B9FF" opacity="1.000000" stroke="none" 
	d="
M0.999998,543.468628 
	C1.666538,541.976440 2.881261,540.972900 2.919551,539.926331 
	C3.909449,512.870056 9.162820,486.559174 17.116024,460.790588 
	C26.697077,429.747772 40.645008,400.652130 59.175816,374.011322 
	C68.586296,360.482330 79.554192,348.003906 90.209869,335.381348 
	C107.071602,315.407227 127.785446,299.783234 148.894226,284.681854 
	C152.832291,281.864532 157.131714,279.552338 161.622589,277.341187 
	C151.295761,297.555908 141.176422,317.694275 133.725006,339.197113 
	C133.218903,339.441498 133.037003,339.704712 132.976456,340.016541 
	C133.013321,340.006714 132.995636,339.932465 132.690857,340.075165 
	C108.281349,362.357391 88.091888,387.608307 72.340805,416.316895 
	C50.267384,456.548798 37.717663,499.528748 36.000839,545.473511 
	C35.478874,559.442017 35.679718,573.440308 35.675900,587.424927 
	C35.651981,675.056030 35.663818,762.687195 35.663818,850.318298 
	C35.663818,852.397095 35.663818,854.475952 35.663818,856.901123 
	C38.457020,856.901123 40.430588,856.900635 42.404160,856.901184 
	C138.698380,856.929382 234.992661,856.915955 331.286804,857.008118 
	C365.823608,857.041138 399.398834,851.553772 431.920319,839.934448 
	C479.026917,823.104248 519.427002,796.183594 553.293945,758.901917 
	C564.931641,753.992371 576.347534,749.455017 587.476624,744.298645 
	C597.096252,739.841736 606.390015,734.681396 615.827820,729.831909 
	C609.394958,739.544983 603.195557,749.422913 596.478516,758.935303 
	C584.207458,776.313171 569.173096,791.302734 553.624084,805.624756 
	C537.188538,820.763245 519.074707,833.817139 499.690582,845.114441 
	C477.167328,858.241333 453.648254,869.099182 428.525177,875.943542 
	C411.977875,880.451599 394.999023,883.376404 378.211304,887.000366 
	C374.611633,887.777405 371.002808,888.511902 367.699097,889.632996 
	C245.741638,890.000000 123.483276,890.000000 1.000000,890.000000 
	C1.000000,774.645874 1.000000,659.291565 0.999998,543.468628 
z"/>
<path fill="#5ED2FF" opacity="1.000000" stroke="none" 
	d="
M133.964691,339.157562 
	C141.176422,317.694275 151.295761,297.555908 161.984100,277.310059 
	C161.987366,276.944733 161.996384,277.005676 162.208588,276.923279 
	C162.575089,276.546295 162.729370,276.251740 162.883667,275.957153 
	C173.865265,260.860352 184.609665,245.582565 195.930771,230.744797 
	C201.409149,223.564651 207.383453,216.538635 214.161346,210.620270 
	C228.942062,197.713974 244.243530,185.388031 259.625702,173.195267 
	C265.036652,168.906250 271.304901,165.698807 277.538208,161.964569 
	C266.122284,181.826614 256.554382,202.768677 247.837555,224.804138 
	C216.751831,253.264420 192.561081,285.969452 175.556274,323.877686 
	C160.153259,358.215057 151.192856,394.132812 149.992859,431.820770 
	C149.564178,445.284729 149.766220,458.770355 149.763855,472.246094 
	C149.748413,560.205872 149.753922,648.165710 149.767914,736.125488 
	C149.768250,738.223450 149.946960,740.321411 150.065094,742.916321 
	C152.343704,742.916321 154.138153,742.915894 155.932617,742.916321 
	C253.221420,742.941589 350.510254,742.997314 447.799011,742.941895 
	C456.775238,742.936768 465.794861,742.658752 474.719299,741.761414 
	C508.036804,738.411682 540.074890,730.096191 570.511169,715.982788 
	C606.589050,699.253357 638.286743,676.492554 665.064575,647.001892 
	C665.064575,647.001892 664.992798,646.987122 665.192139,646.907532 
	C665.676270,646.640015 665.833008,646.376038 665.861633,646.035950 
	C687.617249,638.419678 708.497742,628.898010 728.754150,617.192993 
	C722.905457,626.372559 716.947998,635.816284 710.502869,644.914612 
	C698.219971,662.254089 683.262451,677.286804 667.686951,691.544922 
	C651.968262,705.934204 635.118958,719.061279 616.027344,729.544189 
	C606.390015,734.681396 597.096252,739.841736 587.476624,744.298645 
	C576.347534,749.455017 564.931641,753.992371 552.907288,758.931763 
	C550.418213,759.536316 548.640869,759.940430 546.909180,760.488647 
	C515.641724,770.387207 483.619995,775.897278 450.820099,775.934265 
	C341.365387,776.057678 231.910400,775.945618 122.455521,775.911316 
	C120.687813,775.910767 118.920158,775.750488 116.748291,775.645142 
	C116.748291,772.950684 116.748291,770.804810 116.748291,768.658936 
	C116.748283,668.366882 116.744011,568.074829 116.753990,467.782776 
	C116.755165,455.973206 116.656624,444.159760 116.912827,432.354828 
	C117.566528,402.233032 123.248337,372.966888 132.282928,344.292847 
	C132.720978,342.902557 132.767044,341.388763 132.995636,339.932465 
	C132.995636,339.932465 133.013321,340.006714 133.189667,339.929169 
	C133.618362,339.665833 133.817917,339.434479 133.964691,339.157562 
z"/>
<path fill="#03B9FF" opacity="1.000000" stroke="none" 
	d="
M162.637878,276.035950 
	C162.729370,276.251740 162.575089,276.546295 162.177795,276.923096 
	C162.087234,276.708466 162.239655,276.411591 162.637878,276.035950 
z"/>
<path fill="#FFFFFF" opacity="1.000000" stroke="none" 
	d="
M516.023438,39.004730 
	C527.371033,37.992260 538.277893,36.158222 549.189026,36.132465 
	C650.015137,35.894470 750.842102,36.012558 851.668457,35.827579 
	C856.914368,35.817955 857.966125,37.399006 857.960510,42.310921 
	C857.849426,139.304413 858.270935,236.299805 857.817810,333.291199 
	C857.493286,402.743958 835.709778,465.169128 791.933533,519.215210 
	C745.249023,576.851929 684.889282,612.276245 611.910034,625.529297 
	C596.455505,628.335876 580.538696,629.744568 564.827515,629.802673 
	C466.668640,630.165588 368.507629,629.962952 270.347321,629.945374 
	C263.874054,629.944214 263.865448,629.935730 263.865265,623.372742 
	C263.863159,550.044189 263.916840,476.715515 263.830658,403.387024 
	C263.805817,382.238770 263.296600,361.091492 263.155884,339.942810 
	C262.828491,290.743134 272.144226,243.536789 294.900848,199.728104 
	C337.283539,118.137405 403.392670,66.026253 492.595245,43.450615 
	C500.148254,41.539074 507.916504,40.478073 516.023438,39.004730 
z"/>
<path fill="#FFFFFF" opacity="1.000000" stroke="none" 
	d="
M664.656006,646.957703 
	C638.286743,676.492554 606.589050,699.253357 570.511169,715.982788 
	C540.074890,730.096191 508.036804,738.411682 474.719299,741.761414 
	C465.794861,742.658752 456.775238,742.936768 447.799011,742.941895 
	C350.510254,742.997314 253.221420,742.941589 155.932617,742.916321 
	C154.138153,742.915894 152.343704,742.916321 150.065094,742.916321 
	C149.946960,740.321411 149.768250,738.223450 149.767914,736.125488 
	C149.753922,648.165710 149.748413,560.205872 149.763855,472.246094 
	C149.766220,458.770355 149.564178,445.284729 149.992859,431.820770 
	C151.192856,394.132812 160.153259,358.215057 175.556274,323.877686 
	C192.561081,285.969452 216.751831,253.264420 247.706177,225.135345 
	C244.579819,237.810593 240.254929,250.481689 237.956055,263.510284 
	C234.820801,281.279114 231.378067,299.310059 231.278137,317.246521 
	C230.645325,430.815674 230.917313,544.389709 230.783997,657.962097 
	C230.779312,661.952637 232.028336,663.026917 235.925034,663.023743 
	C348.368164,662.931824 460.812683,663.245117 573.253662,662.743530 
	C602.414062,662.613464 631.021362,656.860840 658.927795,648.146179 
	C660.660400,647.605103 662.472351,647.318481 664.656006,646.957703 
z"/>
<path fill="#FFFFFF" opacity="1.000000" stroke="none" 
	d="
M665.671021,646.167175 
	C665.833008,646.376038 665.676270,646.640015 665.183655,646.943176 
	C665.056702,646.747070 665.224915,646.493713 665.671021,646.167175 
z"/>
<path fill="#FEFFFF" opacity="1.000000" stroke="none" 
	d="
M132.690857,340.075165 
	C132.767044,341.388763 132.720978,342.902557 132.282928,344.292847 
	C123.248337,372.966888 117.566528,402.233032 116.912827,432.354828 
	C116.656624,444.159760 116.755165,455.973206 116.753990,467.782776 
	C116.744011,568.074829 116.748283,668.366882 116.748291,768.658936 
	C116.748291,770.804810 116.748291,772.950684 116.748291,775.645142 
	C118.920158,775.750488 120.687813,775.910767 122.455521,775.911316 
	C231.910400,775.945618 341.365387,776.057678 450.820099,775.934265 
	C483.619995,775.897278 515.641724,770.387207 546.909180,760.488647 
	C548.640869,759.940430 550.418213,759.536316 552.560913,759.035278 
	C519.427002,796.183594 479.026917,823.104248 431.920319,839.934448 
	C399.398834,851.553772 365.823608,857.041138 331.286804,857.008118 
	C234.992661,856.915955 138.698380,856.929382 42.404160,856.901184 
	C40.430588,856.900635 38.457020,856.901123 35.663818,856.901123 
	C35.663818,854.475952 35.663818,852.397095 35.663818,850.318298 
	C35.663818,762.687195 35.651981,675.056030 35.675900,587.424927 
	C35.679718,573.440308 35.478874,559.442017 36.000839,545.473511 
	C37.717663,499.528748 50.267384,456.548798 72.340805,416.316895 
	C88.091888,387.608307 108.281349,362.357391 132.690857,340.075165 
z"/>
<path fill="#FEFFFF" opacity="1.000000" stroke="none" 
	d="
M133.725006,339.197113 
	C133.817917,339.434479 133.618362,339.665833 133.152802,339.938995 
	C133.037003,339.704712 133.218903,339.441498 133.725006,339.197113 
z"/>
</svg>